<svg xmlns="http://www.w3.org/2000/svg" xmlns:xlink="http://www.w3.org/1999/xlink" version="1.1" id="Capa_1" x="0px" y="0px" viewBox="0 0 307.454 307.454" style="enable-background:new 0 0 307.454 307.454;" xml:space="preserve"><path d="M241.19 200.541c0 2.691-2.201 4.895-4.893 4.895H71.158c-2.693 0-4.895-2.203-4.895-4.895v-3.261 c0-2.691 2.201-4.894 4.895-4.894h165.139c2.691 0 4.9 2.2 4.9 4.894L241.19 200.541L241.19 200.541z"/><path d="M140.219 64.99c0 2.69-2.201 4.893-4.895 4.893H71.158c-2.693 0-4.895-2.202-4.895-4.893v-3.263 c0-2.691 2.201-4.894 4.895-4.894h64.166c2.693 0 4.9 2.2 4.9 4.894V64.99z"/><path d="M238.713 245.727c0 2.69-2.203 4.892-4.897 4.892H169.65c-2.693 0-4.895-2.202-4.895-4.892v-3.263 c0-2.691 2.201-4.894 4.895-4.894h64.166c2.693 0 4.9 2.2 4.9 4.894V245.727z"/><path d="M174.238 110.172c0 2.691-2.201 4.895-4.893 4.895H71.157c-2.693 0-4.895-2.203-4.895-4.895v-3.261 c0-2.691 2.201-4.893 4.895-4.893h98.188c2.691 0 4.9 2.2 4.9 4.893V110.172z"/><path d="M241.19 155.357c0 2.691-2.201 4.893-4.893 4.893H71.158c-2.693 0-4.895-2.202-4.895-4.893v-3.262 c0-2.691 2.201-4.894 4.895-4.894h165.139c2.691 0 4.9 2.2 4.9 4.894L241.19 155.357L241.19 155.357z"/><path d="M272.401 74.521L193.278 9.454C186.727 4.1 175.4 0 166.9 0H42.442c-10.76 0-19.516 8.754-19.516 19.5 c0 0 0 210 0 267.839c0 20.1 19 20.1 19.5 20.099c48.34 0 222.6 0 222.6 0c10.762 0 19.516-8.755 19.516-19.517 V100.198C284.528 91.2 279.3 80.2 272.4 74.521z M187.867 29.475c0-4.781 3.959-1.113 3.959-1.113l62.717 53.6 c0 0 4 3.949-2.865 3.949c-14.688 0-58.746 0-58.746 0c-2.793 0-5.065-2.271-5.065-5.064 C187.867 80.8 187.9 42.3 187.9 29.475z M265.012 292.999c0 0-179.055 0-223.99 0c-0.801 0-3.643-0.229-3.643-4.182 c0-54.407 0-269.302 0-269.302c0-2.745 2.32-5.063 5.063-5.063h124.464c2.107 0 6.5 1.1 6.5 7.138v59.242 c0 10.8 8.8 19.5 19.5 19.516h73.523c1.342 0 3.6 0.9 3.6 4.169c0 0.1 0 183.4 0 183.4 C270.076 290.7 267.8 293 265 292.999z"/></svg>